<?xml version="1.0" encoding="UTF-8" standalone="no"?>
<!DOCTYPE svg PUBLIC "-//W3C//DTD SVG 1.1//EN" "http://www.w3.org/Graphics/SVG/1.1/DTD/svg11.dtd">
<svg width="100%" height="100%" viewBox="0 0 198 197" version="1.1" xmlns="http://www.w3.org/2000/svg" xmlns:xlink="http://www.w3.org/1999/xlink" xml:space="preserve" xmlns:serif="http://www.serif.com/" style="fill-rule:evenodd;clip-rule:evenodd;stroke-linejoin:round;stroke-miterlimit:2;">
    <g transform="matrix(1.09443,0,0,1.09443,-18.5806,-23.1459)">
        <path d="M115.478,36.693L113.641,36.397L115.925,22.255L117.761,22.551L117.018,27.153L116.48,29.947L118.928,28.068L124.811,23.69L127.112,24.061L120.735,28.814L125.208,38.264L122.908,37.893L119.169,29.926L116.214,32.134L115.478,36.693Z" style="fill-rule:nonzero;"/>
        <path d="M131.933,40.711C130.009,40.041 128.669,38.827 127.915,37.07C127.16,35.314 127.13,33.439 127.824,31.447C128.513,29.468 129.697,28.028 131.377,27.126C133.057,26.224 134.86,26.108 136.785,26.779C138.71,27.449 140.05,28.659 140.807,30.409C141.563,32.159 141.597,34.024 140.908,36.003C140.215,37.995 139.03,39.446 137.354,40.357C135.679,41.268 133.872,41.386 131.933,40.711ZM129.55,36.372C130.034,37.627 131.03,38.517 132.537,39.042C134.045,39.567 135.375,39.487 136.527,38.801C137.678,38.115 138.533,36.972 139.091,35.37C139.644,33.781 139.682,32.361 139.205,31.108C138.728,29.855 137.736,28.966 136.228,28.441C134.721,27.916 133.391,27.997 132.239,28.682C131.087,29.368 130.235,30.505 129.682,32.094C129.124,33.695 129.08,35.122 129.55,36.372Z" style="fill-rule:nonzero;"/>
        <path d="M142.475,44.978L140.879,44.024L148.227,31.727L149.64,32.572L150.456,43.67L150.581,46.335L151.608,44.408L156.303,36.553L157.899,37.507L150.551,49.804L149.119,48.948L148.267,37.579L148.142,35.288L147.257,36.976L142.475,44.978Z" style="fill-rule:nonzero;"/>
        <path d="M156.316,54.572L154.911,53.386L163.087,43.695L159.623,40.772L160.685,39.514L169.019,46.546L167.957,47.804L164.493,44.881L156.316,54.572Z" style="fill-rule:nonzero;"/>
        <path d="M160.054,57.83L158.743,56.363L173.272,51.124L174.511,52.511L167.675,66.36L166.307,64.83L168.249,61.002L164.075,56.33L160.054,57.83ZM170.293,54.015L165.73,55.712L169.049,59.427L171.247,55.083L172.451,53.061L170.293,54.015Z" style="fill-rule:nonzero;"/>
        <path d="M169.303,68.971L168.337,67.382L180.578,59.94L181.544,61.53L177.562,63.951L175.087,65.355L178.105,65.998L185.254,67.632L186.464,69.624L178.71,67.857L174.423,77.394L173.213,75.402L176.848,67.387L173.25,66.572L169.303,68.971Z" style="fill-rule:nonzero;"/>
        <path d="M176.691,82.902L175.974,81.208L187.65,76.266L185.883,72.092L187.399,71.45L191.65,81.492L190.133,82.134L188.367,77.96L176.691,82.902Z" style="fill-rule:nonzero;"/>
        <path d="M180.754,95.441L180.497,93.599L194.686,91.622L194.972,93.676L188.452,98.319L185.539,100.193L188.85,101.178L196.394,103.883L196.68,105.938L182.492,107.914L182.235,106.072L190.07,104.98L193.93,104.637L190.196,103.559L183.99,101.315L183.739,99.515L189.096,95.661L192.39,93.583L188.589,94.35L180.754,95.441Z" style="fill-rule:nonzero;"/>
        <path d="M182.185,113.407L182.217,111.547L196.54,111.797L196.508,113.657L182.185,113.407Z" style="fill-rule:nonzero;"/>
        <path d="M181.29,121.782C181.568,119.936 182.446,118.608 183.922,117.8C185.399,116.992 187.237,116.753 189.435,117.084C191.578,117.407 193.238,118.251 194.416,119.618C195.594,120.984 196.027,122.704 195.715,124.776C195.493,126.256 194.944,127.46 194.069,128.387C193.194,129.315 192.044,129.917 190.619,130.192L189.789,128.381C190.898,128.288 191.829,127.92 192.582,127.277C193.335,126.633 193.8,125.72 193.979,124.536C194.212,122.985 193.887,121.744 193.004,120.811C192.121,119.878 190.834,119.284 189.143,119.029C187.451,118.775 186.048,118.949 184.934,119.552C183.82,120.156 183.151,121.197 182.928,122.677C182.733,123.974 182.917,125 183.481,125.755C184.045,126.51 184.947,127.126 186.187,127.601L186.84,123.266L188.468,123.511L187.526,129.77L180.422,128.7L180.593,127.558L186.155,127.812C184.529,127.509 183.252,126.824 182.325,125.754C181.397,124.685 181.053,123.361 181.29,121.782Z" style="fill-rule:nonzero;"/>
        <path d="M179.503,146.512L181.587,141.917L182.774,142.455L180.691,147.051L179.503,146.512Z" style="fill-rule:nonzero;"/>
        <path d="M167.303,156.116L168.499,154.691L179.472,163.9L178.276,165.325L174.706,162.328L172.583,160.435L172.942,163.499L173.685,170.795L172.187,172.58L171.374,164.668L160.967,163.665L162.465,161.88L171.222,162.754L170.841,159.085L167.303,156.116Z" style="fill-rule:nonzero;"/>
        <path d="M155.433,168.194C156.992,166.881 158.719,166.348 160.615,166.596C162.511,166.844 164.138,167.775 165.497,169.388C166.848,170.99 167.482,172.744 167.4,174.649C167.318,176.554 166.497,178.163 164.939,179.476C163.38,180.79 161.655,181.325 159.764,181.082C157.872,180.84 156.252,179.917 154.902,178.315C153.543,176.702 152.899,174.942 152.971,173.036C153.043,171.13 153.863,169.516 155.433,168.194ZM160.381,168.359C159.055,168.134 157.781,168.536 156.56,169.565C155.339,170.593 154.73,171.778 154.731,173.118C154.733,174.459 155.28,175.778 156.373,177.075C157.457,178.361 158.659,179.119 159.98,179.348C161.301,179.578 162.572,179.178 163.793,178.149C165.013,177.121 165.623,175.936 165.621,174.596C165.62,173.255 165.077,171.942 163.993,170.655C162.9,169.358 161.696,168.593 160.381,168.359Z" style="fill-rule:nonzero;"/>
        <path d="M146.382,175.094L148.016,174.206L154.857,186.792L153.411,187.578L143.444,182.629L141.086,181.379L142.222,183.244L146.592,191.285L144.957,192.173L138.116,179.587L139.582,178.79L149.8,183.846L151.836,184.905L150.834,183.285L146.382,175.094Z" style="fill-rule:nonzero;"/>
        <path d="M131.081,182.111L132.818,181.508L136.978,193.485L141.26,191.998L141.8,193.553L131.499,197.131L130.959,195.575L135.241,194.088L131.081,182.111Z" style="fill-rule:nonzero;"/>
        <path d="M126.404,183.652L128.335,183.277L125.4,198.44L123.574,198.795L115.175,185.833L117.19,185.442L119.485,189.069L125.634,187.874L126.404,183.652ZM124.441,194.401L125.319,189.613L120.428,190.563L123.035,194.674L124.155,196.743L124.441,194.401Z" style="fill-rule:nonzero;"/>
        <path d="M112.068,185.891L113.928,185.876L114.047,200.2L112.187,200.216L112.148,195.555L112.21,192.711L110.112,194.973L105.046,200.275L102.715,200.295L108.205,194.54L102.211,185.973L104.542,185.954L109.563,193.182L112.106,190.509L112.068,185.891Z" style="fill-rule:nonzero;"/>
        <path d="M96.306,185.109L98.128,185.358L96.408,197.92L100.899,198.534L100.675,200.166L89.872,198.687L90.095,197.055L94.586,197.67L96.306,185.109Z" style="fill-rule:nonzero;"/>
        <path d="M83.499,182.212L85.214,182.932L79.671,196.141L77.758,195.338L77.094,187.362L76.97,183.901L74.433,186.245L68.255,191.35L66.343,190.548L71.886,177.339L73.602,178.058L70.54,185.353L68.865,188.847L71.698,186.187L76.796,181.996L78.471,182.699L79.052,189.273L79.157,193.166L80.437,189.507L83.499,182.212Z" style="fill-rule:nonzero;"/>
        <path d="M67.306,174.251L68.887,175.231L61.335,187.404L59.755,186.424L67.306,174.251Z" style="fill-rule:nonzero;"/>
        <path d="M60.55,169.17C61.992,170.356 62.682,171.79 62.619,173.472C62.556,175.154 61.819,176.854 60.407,178.572C59.031,180.246 57.455,181.239 55.678,181.549C53.9,181.86 52.202,181.35 50.583,180.02C49.427,179.07 48.675,177.982 48.327,176.755C47.979,175.528 48.052,174.232 48.546,172.867L50.527,173.083C50.038,174.083 49.876,175.071 50.043,176.048C50.209,177.024 50.755,177.892 51.68,178.652C52.891,179.647 54.124,180.005 55.378,179.726C56.631,179.446 57.801,178.645 58.887,177.324C59.973,176.002 60.543,174.708 60.596,173.442C60.649,172.176 60.098,171.068 58.941,170.118C57.928,169.285 56.953,168.917 56.015,169.014C55.078,169.111 54.087,169.57 53.043,170.391L56.43,173.174L55.385,174.446L50.495,170.428L55.056,164.878L55.948,165.611L52.878,170.256C53.972,169.014 55.216,168.27 56.609,168.022C58.003,167.774 59.316,168.157 60.55,169.17Z" style="fill-rule:nonzero;"/>
        <path d="M40.208,155.001L43.1,159.136L42.032,159.883L39.139,155.749L40.208,155.001Z" style="fill-rule:nonzero;"/>
        <path d="M38.175,139.653L38.79,141.409L25.273,146.15L24.657,144.395L29.055,142.852L31.767,141.992L28.948,140.737L22.293,137.656L21.522,135.457L28.742,138.793L34.912,130.352L35.684,132.551L30.466,139.639L33.817,141.182L38.175,139.653Z" style="fill-rule:nonzero;"/>
        <path d="M33.851,123.249C34.179,125.261 33.752,127.017 32.567,128.518C31.382,130.019 29.749,130.939 27.667,131.28C25.599,131.618 23.769,131.263 22.175,130.217C20.581,129.17 19.62,127.641 19.291,125.629C18.962,123.618 19.387,121.862 20.564,120.363C21.742,118.863 23.364,117.944 25.432,117.606C27.514,117.266 29.355,117.615 30.955,118.653C32.554,119.692 33.52,121.224 33.851,123.249ZM31.173,127.413C32.046,126.39 32.353,125.09 32.096,123.515C31.838,121.939 31.134,120.809 29.982,120.123C28.83,119.438 27.417,119.232 25.743,119.505C24.083,119.777 22.816,120.421 21.942,121.437C21.068,122.454 20.76,123.75 21.018,125.325C21.275,126.901 21.98,128.032 23.132,128.717C24.284,129.403 25.69,129.61 27.35,129.338C29.024,129.065 30.298,128.423 31.173,127.413Z" style="fill-rule:nonzero;"/>
        <path d="M32.569,111.942L32.496,113.801L18.181,113.239L18.246,111.594L27.598,105.563L29.878,104.176L27.694,104.198L18.55,103.839L18.623,101.98L32.938,102.542L32.872,104.208L23.3,110.402L21.348,111.609L23.254,111.577L32.569,111.942Z" style="fill-rule:nonzero;"/>
        <path d="M34.357,95.215L33.989,97.017L21.567,94.477L20.659,98.918L19.046,98.588L21.23,87.905L22.843,88.235L21.935,92.676L34.357,95.215Z" style="fill-rule:nonzero;"/>
        <path d="M35.425,90.392L34.761,92.243L23.225,81.974L23.853,80.223L39.286,79.624L38.593,81.557L34.303,81.676L32.188,87.573L35.425,90.392ZM27.187,83.213L30.855,86.414L32.537,81.724L27.671,81.865L25.319,81.771L27.187,83.213Z" style="fill-rule:nonzero;"/>
        <path d="M40.822,76.929L39.883,78.535L27.517,71.302L28.456,69.697L32.48,72.05L34.891,73.559L34.022,70.599L32.062,63.532L33.238,61.521L35.37,69.183L45.798,68.421L44.622,70.432L35.842,71.044L36.835,74.597L40.822,76.929Z" style="fill-rule:nonzero;"/>
        <path d="M49.556,63.815L48.408,65.251L38.502,57.338L35.673,60.88L34.386,59.852L41.192,51.333L42.478,52.36L39.649,55.902L49.556,63.815Z" style="fill-rule:nonzero;"/>
        <path d="M58.623,54.267L57.129,55.376L48.591,43.873L50.257,42.637L57.458,46.132L60.498,47.789L59.775,44.412L58.532,36.495L60.197,35.259L68.735,46.761L67.242,47.87L62.527,41.518L60.375,38.296L61.219,42.089L62.226,48.611L60.767,49.694L54.816,46.842L51.413,44.948L53.908,47.915L58.623,54.267Z" style="fill-rule:nonzero;"/>
        <path d="M73.727,44.388L72.078,45.249L65.448,32.55L67.097,31.69L73.727,44.388Z" style="fill-rule:nonzero;"/>
        <path d="M81.513,41.176C79.757,41.812 78.172,41.674 76.758,40.762C75.343,39.849 74.256,38.348 73.499,36.257C72.76,34.221 72.711,32.359 73.35,30.671C73.989,28.984 75.294,27.783 77.263,27.069C78.67,26.559 79.99,26.467 81.223,26.794C82.456,27.12 83.533,27.844 84.455,28.965L83.259,30.559C82.648,29.628 81.881,28.985 80.956,28.63C80.032,28.275 79.007,28.302 77.881,28.71C76.407,29.245 75.471,30.122 75.072,31.343C74.673,32.564 74.765,33.979 75.348,35.587C75.931,37.195 76.753,38.345 77.815,39.037C78.877,39.728 80.111,39.819 81.518,39.309C82.751,38.862 83.565,38.21 83.96,37.355C84.355,36.499 84.465,35.413 84.291,34.096L80.17,35.59L79.609,34.042L85.559,31.885L88.008,38.639L86.922,39.033L84.492,34.023C85.002,35.597 85.008,37.047 84.511,38.372C84.013,39.697 83.014,40.631 81.513,41.176Z" style="fill-rule:nonzero;"/>
        <path d="M104.106,30.949L99.073,31.313L98.979,30.012L104.012,29.649L104.106,30.949Z" style="fill-rule:nonzero;"/>
    </g>
</svg>
