<?xml version="1.0" encoding="UTF-8" standalone="no"?>
<!DOCTYPE svg PUBLIC "-//W3C//DTD SVG 1.1//EN" "http://www.w3.org/Graphics/SVG/1.1/DTD/svg11.dtd">
<svg width="100%" height="100%" viewBox="0 0 198 197" version="1.1" xmlns="http://www.w3.org/2000/svg" xmlns:xlink="http://www.w3.org/1999/xlink" xml:space="preserve" xmlns:serif="http://www.serif.com/" style="fill-rule:evenodd;clip-rule:evenodd;stroke-linejoin:round;stroke-miterlimit:2;">
    <g transform="matrix(1.09443,0,0,1.09443,-18.5751,-23.7446)">
        <path d="M114.077,36.514L112.132,36.218L119.994,22.924L121.833,23.204L125.385,38.235L123.356,37.926L122.415,33.738L116.221,32.796L114.077,36.514ZM119.539,27.051L117.103,31.265L122.028,32.014L120.956,27.266L120.596,24.94L119.539,27.051Z" style="fill-rule:nonzero;"/>
        <path d="M128.293,39.265L126.528,38.676L131.061,25.087L140.168,28.124L139.647,29.686L132.305,27.237L130.681,32.105L136.705,34.114L136.184,35.676L130.16,33.667L128.293,39.265Z" style="fill-rule:nonzero;"/>
        <path d="M141.97,45.058C140.689,44.4 139.701,43.556 139.004,42.525C138.307,41.495 138.049,40.321 138.229,39.003L140.051,38.544C139.829,39.632 139.998,40.613 140.559,41.486C141.121,42.359 141.858,43.029 142.771,43.498C143.544,43.895 144.256,44.061 144.907,43.994C145.558,43.928 146.053,43.565 146.392,42.906C146.737,42.234 146.761,41.641 146.463,41.128C146.166,40.615 145.585,39.984 144.719,39.235L143.658,38.354C143.222,37.985 142.854,37.633 142.555,37.295C142.256,36.957 141.986,36.562 141.745,36.11C141.505,35.658 141.39,35.162 141.403,34.624C141.415,34.085 141.567,33.531 141.86,32.96C142.433,31.844 143.295,31.181 144.444,30.97C145.594,30.759 146.759,30.957 147.938,31.562C149.104,32.161 149.99,32.932 150.595,33.876C151.2,34.82 151.452,35.858 151.351,36.992L149.396,37.382C149.659,35.466 148.89,34.046 147.089,33.121C146.366,32.75 145.691,32.616 145.062,32.717C144.433,32.819 143.968,33.161 143.669,33.745C143.363,34.341 143.328,34.892 143.565,35.398C143.802,35.904 144.274,36.467 144.981,37.086L146.194,38.142C146.674,38.548 147.064,38.921 147.363,39.259C147.662,39.596 147.945,40.006 148.21,40.487C148.476,40.968 148.601,41.481 148.586,42.026C148.571,42.571 148.41,43.141 148.104,43.737C147.551,44.815 146.707,45.467 145.573,45.694C144.439,45.921 143.238,45.709 141.97,45.058Z" style="fill-rule:nonzero;"/>
        <path d="M150.035,49.6L148.558,48.469L157.267,37.095L161.816,40.579C162.993,41.48 163.704,42.545 163.948,43.773C164.193,45.002 163.834,46.244 162.872,47.5C161.979,48.666 160.915,49.283 159.678,49.35C158.442,49.418 157.235,49.001 156.058,48.099L152.985,45.747L150.035,49.6ZM160.578,41.704L157.743,39.534L153.986,44.44L156.821,46.61C157.613,47.217 158.403,47.534 159.189,47.562C159.976,47.59 160.694,47.179 161.344,46.33C162.644,44.633 162.388,43.091 160.578,41.704Z" style="fill-rule:nonzero;"/>
        <path d="M159.81,57.791L158.466,56.504L168.375,46.158L169.718,47.445L159.81,57.791Z" style="fill-rule:nonzero;"/>
        <path d="M168.356,67.549L162.435,60.294L173.533,51.237L174.709,52.678L164.886,60.694L169.631,66.509L168.356,67.549Z" style="fill-rule:nonzero;"/>
        <path d="M174.681,78.414L173.844,76.753L184.222,65.514L185.145,67.347L178.569,74.252L175.747,76.871L179.531,76.162L189.004,75.004L189.879,76.741L174.681,78.414Z" style="fill-rule:nonzero;"/>
        <path d="M177.925,86.135L177.28,84.39L190.718,79.425L191.362,81.17L177.925,86.135Z" style="fill-rule:nonzero;"/>
        <path d="M180.346,94.465L179.274,89.513L193.276,86.484L194.347,91.437C194.817,93.61 194.567,95.385 193.596,96.762C192.625,98.139 191.018,99.07 188.775,99.555C186.532,100.04 184.684,99.856 183.231,99.004C181.777,98.152 180.816,96.639 180.346,94.465ZM192.675,91.492L192.06,88.65L181.277,90.983L181.892,93.825C182.25,95.483 182.939,96.643 183.957,97.305C184.975,97.967 186.445,98.09 188.368,97.674C190.291,97.258 191.579,96.538 192.232,95.515C192.886,94.491 193.033,93.15 192.675,91.492Z" style="fill-rule:nonzero;"/>
        <path d="M182.335,113.454L182.001,103.667L196.318,103.179L196.652,112.966L195.007,113.022L194.736,105.094L190.228,105.248L190.451,111.787L188.805,111.843L188.582,105.304L183.71,105.47L183.981,113.398L182.335,113.454Z" style="fill-rule:nonzero;"/>
        <path d="M181.291,121.456C181.57,119.437 182.498,117.885 184.072,116.801C185.647,115.717 187.479,115.319 189.569,115.609C191.645,115.896 193.289,116.775 194.503,118.246C195.717,119.716 196.184,121.461 195.904,123.48C195.625,125.499 194.701,127.051 193.133,128.136C191.565,129.221 189.744,129.62 187.668,129.333C185.579,129.043 183.923,128.166 182.701,126.702C181.479,125.238 181.009,123.489 181.291,121.456ZM185.078,118.268C183.942,118.988 183.265,120.139 183.046,121.72C182.827,123.302 183.166,124.59 184.065,125.585C184.963,126.58 186.252,127.194 187.932,127.427C189.598,127.657 190.999,127.416 192.134,126.703C193.269,125.989 193.946,124.842 194.165,123.26C194.384,121.679 194.044,120.391 193.146,119.396C192.247,118.401 190.965,117.788 189.299,117.557C187.619,117.325 186.212,117.561 185.078,118.268Z" style="fill-rule:nonzero;"/>
        <path d="M179.744,146.019L181.796,141.409L182.987,141.939L180.935,146.549L179.744,146.019Z" style="fill-rule:nonzero;"/>
        <path d="M168.471,154.595L169.712,153.068L177.186,166.584L176.013,168.027L161.255,163.47L162.55,161.878L166.637,163.189L170.589,158.328L168.471,154.595ZM173.86,164.1L171.462,159.864L168.319,163.73L172.956,165.212L175.143,166.081L173.86,164.1Z" style="fill-rule:nonzero;"/>
        <path d="M158.909,165.45L160.308,164.224L169.752,174.995L162.534,181.324L161.448,180.086L167.268,174.983L163.885,171.125L159.11,175.311L158.025,174.074L162.8,169.887L158.909,165.45Z" style="fill-rule:nonzero;"/>
        <path d="M147.019,174.339C148.231,173.563 149.458,173.134 150.699,173.05C151.94,172.967 153.085,173.335 154.133,174.153L153.613,175.958C152.785,175.219 151.852,174.872 150.815,174.918C149.779,174.964 148.828,175.263 147.963,175.816C147.231,176.285 146.73,176.817 146.459,177.413C146.189,178.009 146.254,178.619 146.653,179.243C147.06,179.88 147.56,180.198 148.154,180.2C148.747,180.201 149.584,180.016 150.667,179.645L151.963,179.171C152.5,178.98 152.99,178.84 153.433,178.751C153.875,178.663 154.353,178.628 154.864,178.648C155.376,178.667 155.861,178.818 156.321,179.099C156.78,179.381 157.182,179.792 157.528,180.332C158.204,181.389 158.344,182.467 157.948,183.566C157.551,184.666 156.795,185.573 155.678,186.288C154.573,186.994 153.461,187.372 152.341,187.42C151.221,187.468 150.197,187.163 149.268,186.505L149.915,184.619C151.438,185.81 153.053,185.86 154.758,184.77C155.442,184.332 155.899,183.815 156.127,183.221C156.356,182.626 156.294,182.052 155.94,181.5C155.579,180.936 155.12,180.629 154.564,180.579C154.007,180.529 153.283,180.653 152.392,180.953L150.87,181.47C150.277,181.68 149.759,181.829 149.316,181.918C148.874,182.007 148.378,182.045 147.828,182.032C147.279,182.02 146.773,181.87 146.31,181.583C145.847,181.295 145.434,180.869 145.073,180.305C144.42,179.284 144.281,178.227 144.656,177.133C145.03,176.039 145.818,175.107 147.019,174.339Z" style="fill-rule:nonzero;"/>
        <path d="M139.058,179.013L140.779,178.307L146.221,191.558L140.92,193.735C139.549,194.298 138.271,194.376 137.087,193.968C135.902,193.561 135.01,192.626 134.409,191.162C133.851,189.804 133.854,188.574 134.419,187.471C134.983,186.369 135.951,185.536 137.322,184.973L140.902,183.503L139.058,179.013ZM140.572,192.098L143.875,190.742L141.527,185.026L138.224,186.382C137.301,186.761 136.63,187.284 136.21,187.949C135.79,188.615 135.783,189.442 136.189,190.431C137.001,192.409 138.462,192.965 140.572,192.098Z" style="fill-rule:nonzero;"/>
        <path d="M127.002,183.343L128.791,182.834L132.708,196.613L130.919,197.122L127.002,183.343Z" style="fill-rule:nonzero;"/>
        <path d="M114.305,185.762L123.56,184.332L125.749,198.489L123.91,198.773L121.973,186.243L114.557,187.389L114.305,185.762Z" style="fill-rule:nonzero;"/>
        <path d="M101.697,185.716L103.554,185.833L108.002,200.47L105.954,200.34L103.322,191.175L102.489,187.415L101.188,191.039L97.397,199.797L95.455,199.673L101.697,185.716Z" style="fill-rule:nonzero;"/>
        <path d="M93.405,184.616L95.237,184.941L92.737,199.046L90.905,198.722L93.405,184.616Z" style="fill-rule:nonzero;"/>
        <path d="M85.027,182.511L89.844,184.084L85.396,197.702L80.579,196.128C78.465,195.438 77.059,194.326 76.36,192.793C75.661,191.26 75.668,189.403 76.381,187.222C77.093,185.04 78.184,183.537 79.653,182.712C81.122,181.888 82.914,181.82 85.027,182.511ZM81.375,194.656L84.139,195.559L87.565,185.072L84.801,184.169C83.188,183.642 81.839,183.651 80.754,184.197C79.669,184.742 78.821,185.949 78.21,187.819C77.599,189.689 77.571,191.164 78.125,192.245C78.679,193.326 79.763,194.129 81.375,194.656Z" style="fill-rule:nonzero;"/>
        <path d="M67.598,174.618L76.209,179.282L69.387,191.878L60.777,187.215L61.561,185.767L68.536,189.545L70.684,185.578L64.931,182.462L65.715,181.015L71.468,184.13L73.79,179.844L66.814,176.066L67.598,174.618Z" style="fill-rule:nonzero;"/>
        <path d="M61.237,169.663C62.836,170.927 63.703,172.513 63.84,174.42C63.976,176.327 63.39,178.108 62.081,179.762C60.782,181.406 59.19,182.378 57.308,182.679C55.425,182.98 53.684,182.499 52.085,181.234C50.487,179.97 49.617,178.387 49.476,176.485C49.335,174.584 49.915,172.811 51.214,171.168C52.523,169.513 54.118,168.53 56,168.219C57.881,167.908 59.627,168.39 61.237,169.663ZM62.066,174.543C62.02,173.199 61.371,172.032 60.119,171.041C58.867,170.051 57.585,169.691 56.272,169.961C54.959,170.231 53.776,171.031 52.724,172.362C51.68,173.681 51.179,175.01 51.218,176.35C51.258,177.69 51.904,178.855 53.156,179.846C54.408,180.836 55.691,181.196 57.004,180.926C58.317,180.656 59.495,179.862 60.539,178.542C61.591,177.212 62.1,175.879 62.066,174.543Z" style="fill-rule:nonzero;"/>
        <path d="M40.825,155.931L43.775,160.025L42.717,160.787L39.767,156.693L40.825,155.931Z" style="fill-rule:nonzero;"/>
        <path d="M39.096,141.898L39.79,143.739L24.349,143.384L23.694,141.643L35.066,131.193L35.789,133.114L32.597,135.983L34.805,141.846L39.096,141.898ZM28.171,141.762L33.038,141.826L31.283,137.164L27.666,140.422L25.813,141.873L28.171,141.762Z" style="fill-rule:nonzero;"/>
        <path d="M34.538,128.128L34.887,129.955L20.816,132.643L19.015,123.213L20.632,122.904L22.084,130.507L27.124,129.544L25.933,123.307L27.55,122.998L28.742,129.235L34.538,128.128Z" style="fill-rule:nonzero;"/>
        <path d="M32.903,113.411C32.958,114.85 32.707,116.125 32.15,117.237C31.594,118.35 30.697,119.151 29.46,119.64L28.167,118.277C29.224,117.937 29.995,117.309 30.481,116.392C30.967,115.474 31.19,114.503 31.151,113.478C31.118,112.609 30.913,111.907 30.536,111.372C30.159,110.837 29.6,110.584 28.86,110.612C28.105,110.641 27.577,110.911 27.275,111.421C26.974,111.932 26.709,112.748 26.48,113.869L26.232,115.227C26.125,115.787 25.998,116.281 25.85,116.707C25.702,117.133 25.49,117.562 25.214,117.994C24.938,118.425 24.563,118.767 24.087,119.021C23.612,119.274 23.054,119.413 22.413,119.437C21.16,119.485 20.159,119.06 19.412,118.161C18.664,117.262 18.265,116.15 18.215,114.826C18.165,113.515 18.403,112.365 18.929,111.375C19.455,110.385 20.236,109.657 21.274,109.189L22.573,110.702C20.774,111.412 19.913,112.778 19.99,114.801C20.021,115.613 20.235,116.268 20.632,116.767C21.029,117.265 21.555,117.502 22.21,117.477C22.879,117.451 23.377,117.211 23.702,116.757C24.027,116.302 24.286,115.615 24.479,114.694L24.804,113.12C24.923,112.502 25.057,111.98 25.205,111.554C25.353,111.127 25.571,110.68 25.86,110.213C26.149,109.745 26.534,109.385 27.017,109.131C27.499,108.877 28.075,108.738 28.745,108.712C29.955,108.666 30.938,109.082 31.691,109.959C32.445,110.836 32.849,111.987 32.903,113.411Z" style="fill-rule:nonzero;"/>
        <path d="M32.9,104.133L32.641,105.975L18.456,103.976L19.255,98.302C19.462,96.834 20.04,95.692 20.99,94.876C21.94,94.06 23.199,93.762 24.765,93.983C26.219,94.188 27.279,94.812 27.945,95.856C28.611,96.9 28.841,98.156 28.634,99.624L28.094,103.456L32.9,104.133ZM20.844,98.828L20.345,102.364L26.464,103.226L26.962,99.691C27.101,98.703 26.99,97.859 26.628,97.16C26.266,96.462 25.555,96.038 24.497,95.889C22.38,95.59 21.162,96.57 20.844,98.828Z" style="fill-rule:nonzero;"/>
        <path d="M35.246,91.571L34.782,93.372L20.91,89.799L21.374,87.998L35.246,91.571Z" style="fill-rule:nonzero;"/>
        <path d="M39.567,79.387L36.13,88.098L22.805,82.84L23.487,81.109L35.281,85.763L38.036,78.783L39.567,79.387Z" style="fill-rule:nonzero;"/>
        <path d="M45.995,68.528L44.952,70.068L30.081,66.482L31.232,64.782L40.466,67.16L44.128,68.349L41.665,65.39L36.038,57.682L37.129,56.071L45.995,68.528Z" style="fill-rule:nonzero;"/>
        <path d="M51.14,61.943L49.933,63.358L39.036,54.059L40.243,52.644L51.14,61.943Z" style="fill-rule:nonzero;"/>
        <path d="M57.204,55.769L53.414,59.133L43.905,48.418L47.696,45.055C49.359,43.579 51.028,42.926 52.704,43.097C54.38,43.267 55.98,44.211 57.503,45.927C59.026,47.644 59.773,49.344 59.743,51.029C59.714,52.713 58.867,54.293 57.204,55.769ZM48.564,46.485L46.389,48.415L53.712,56.667L55.887,54.736C57.156,53.611 57.829,52.442 57.906,51.229C57.984,50.017 57.37,48.676 56.064,47.205C54.758,45.733 53.499,44.964 52.286,44.897C51.074,44.829 49.833,45.359 48.564,46.485Z" style="fill-rule:nonzero;"/>
        <path d="M72.782,44.701L64.42,49.797L56.965,37.564L65.327,32.468L66.184,33.874L59.41,38.002L61.758,41.855L67.345,38.45L68.201,39.856L62.615,43.26L65.151,47.423L71.925,43.295L72.782,44.701Z" style="fill-rule:nonzero;"/>
        <path d="M80.265,41.7C78.367,42.443 76.561,42.394 74.845,41.551C73.129,40.708 71.886,39.304 71.116,37.34C70.351,35.389 70.313,33.525 71.002,31.747C71.69,29.969 72.984,28.708 74.881,27.964C76.779,27.22 78.585,27.267 80.298,28.103C82.011,28.939 83.251,30.333 84.015,32.284C84.785,34.248 84.83,36.121 84.151,37.903C83.471,39.685 82.176,40.951 80.265,41.7ZM75.632,39.956C76.816,40.594 78.151,40.622 79.637,40.04C81.124,39.457 82.081,38.531 82.51,37.26C82.938,35.99 82.843,34.565 82.224,32.986C81.61,31.42 80.714,30.317 79.537,29.676C78.359,29.035 77.027,29.006 75.541,29.589C74.055,30.171 73.097,31.098 72.669,32.368C72.241,33.638 72.333,35.056 72.947,36.622C73.566,38.201 74.461,39.313 75.632,39.956Z" style="fill-rule:nonzero;"/>
        <path d="M102.451,31.034L97.426,31.501L97.306,30.202L102.33,29.735L102.451,31.034Z" style="fill-rule:nonzero;"/>
    </g>
</svg>
